<svg xmlns="http://www.w3.org/2000/svg" width="8.5" height="11.333" viewBox="0 0 8.5 11.333"><defs><style>.a{fill:#c7c7c7;}</style></defs><g transform="translate(-64)"><g transform="translate(64)"><path class="a" d="M72.264,4.25h-.708V3.306a3.306,3.306,0,0,0-6.611,0V4.25h-.708A.236.236,0,0,0,64,4.486v5.9a.945.945,0,0,0,.944.944h6.611a.945.945,0,0,0,.944-.944v-5.9A.236.236,0,0,0,72.264,4.25ZM68.957,9.182a.236.236,0,0,1-.235.262h-.944a.236.236,0,0,1-.235-.262l.149-1.339a.934.934,0,0,1-.386-.76.944.944,0,1,1,1.889,0,.934.934,0,0,1-.386.76ZM70.139,4.25H66.361V3.306a1.889,1.889,0,0,1,3.778,0Z" transform="translate(-64)"/></g></g></svg>