<svg xmlns="http://www.w3.org/2000/svg" width="18.635" height="8.501" viewBox="0 0 18.635 8.501"><defs><style>.a{fill:#c7c7c7;}</style></defs><g transform="translate(0 -63.997)"><g transform="translate(0 63.997)"><g transform="translate(0 0)"><path class="a" d="M18.616,68.175C17.3,65.676,13.559,64,9.317,64s-7.978,1.679-9.3,4.178a.15.15,0,0,0,0,.144c1.32,2.5,5.058,4.178,9.3,4.178s7.978-1.679,9.3-4.178A.15.15,0,0,0,18.616,68.175Zm-9.3,3.378c-3,0-5.435-1.483-5.435-3.306s2.438-3.306,5.435-3.306,5.435,1.483,5.435,3.306S12.314,71.553,9.317,71.553Z" transform="translate(0 -63.997)"/><circle class="a" cx="3.106" cy="3.106" r="3.106" transform="translate(6.211 1.145)"/></g></g></g></svg>